<svg id="Capa_1" enable-background="new 0 0 497 497" height="512" viewBox="0 0 497 497" width="512" xmlns="http://www.w3.org/2000/svg"><g><path d="m356.467 497h-215.934c-4.418 0-8-3.582-8-8v-30.133h231.933v30.133c.001 4.418-3.581 8-7.999 8z" fill="#d0e2ed"/><path d="m341.467 458.867v30.133c0 4.418-3.582 8-8 8h23c4.418 0 8-3.582 8-8v-30.133z" fill="#aabfcf"/><path d="m181.517.179-63.088 15.772c-1.605.401-3.053 1.274-4.157 2.505l-89.313 99.57-12.192 27.849c-2.398 3.052 6.753 2.523 9.211 5.526l52.27 71.612c3.103 3.793 3.309-4.824 6.774-8.29l23.047-4.027 1.655-1.655c3.78-3.78 10.243-1.103 10.243 4.243l39.946 242.298c0 4.575 3.708 8.283 8.283 8.283h168.554c4.575 0 8.283-3.709 8.283-8.283l40-242.298c0-5.345 6.463-8.022 10.243-4.243l31.951 13.292c3.465 3.465-.457 3.037 2.646-.756l60.854-70.681c2.458-3.004-.626-3.752-3.024-6.804l-100.975-125.636c-1.104-1.231-2.552-2.104-4.157-2.505l-63.088-15.772c-.476-.119-.964-.179-1.455-.179l-66.127 21-64.929-21c-.491 0-.979.06-1.455.179z" fill="#118df0"/><path d="m488.717 141.761-16.557-23.603-34.109-38.026-23.401-11.595 1.355-12.982-33.278-37.099c-1.105-1.231-2.552-2.104-4.157-2.505l-29.532-7.383c1.521.423 2.896 1.26 3.951 2.437l112.502 125.421c2.398 3.052-59.099 74.899-59.099 74.899-2.974 3.635-8.327 4.038-11.819 1.015l24.23 8.203c3.465 3.465 2.636 2.489 5.739-1.304l61.304-70.957c2.459-3.003 5.269-3.469 2.871-6.521z" fill="#1179f0"/><path d="m388.533 141.6c-4.143 0-7.5 3.358-7.5 7.5v64.185c0-5.346 6.463-8.023 10.243-4.243l4.757 4.757v-64.7c0-4.141-3.357-7.499-7.5-7.499z" fill="#1179f0"/><path d="m108.467 141.6c-4.142 0-7.5 3.358-7.5 7.5v64.7l4.757-4.757c3.78-3.78 10.243-1.103 10.243 4.243v-64.186c0-4.142-3.358-7.5-7.5-7.5z" fill="#1179f0"/><g fill="#d0e2ed"><path d="m1.872 154.24 66.882 78.892c3.103 3.793 8.803 4.077 12.268.612l23.249-23.249-78.839-92.997-23.662 26.379c-2.398 3.052-2.355 7.36.102 10.363z"/><path d="m392.729 210.496 23.249 23.249c3.465 3.465 9.165 3.181 12.268-.612l66.882-78.892c2.457-3.004 2.5-7.311.102-10.363l-23.662-26.379z"/><path d="m381.033 455.583v-289.916l-39.996 39.995c-6.214 6.214-9.704 14.641-9.704 23.429v234.776h41.417c4.575 0 8.283-3.709 8.283-8.284z"/><path d="m155.962 205.662-39.995-39.995v289.917c0 4.575 3.708 8.283 8.283 8.283h41.417v-234.776c0-8.788-3.491-17.215-9.705-23.429z"/></g><path d="m495.23 143.877-23.662-26.379-11.202 13.213 5.126 5.715c2.398 3.052 2.355 7.359-.102 10.363l-58.997 64.536c-2.974 3.635-8.327 4.038-11.819 1.015l21.404 21.404c3.465 3.465 9.165 3.181 12.268-.612l66.882-78.892c2.457-3.003 2.5-7.311.102-10.363z" fill="#aabfcf"/><g><path d="m381.033 165.667-29.738 29.738v260.187c0 4.519-3.62 8.186-8.118 8.275h29.572c4.575 0 8.283-3.708 8.283-8.283v-289.917z" fill="#aabfcf"/></g><path d="m419.284 96.853 18.71-16.781-22.122-24.666-18.71 16.781c-3.289 2.95-3.564 8.008-.614 11.297l11.439 12.755c2.95 3.289 8.008 3.564 11.297.614z" fill="#d0e2ed"/><path d="m190.8 115.967h-17.133c-4.418 0-8-3.582-8-8v-17.134c0-4.418 3.582-8 8-8h17.133c4.418 0 8 3.582 8 8v17.133c0 4.419-3.582 8.001-8 8.001z" fill="#d0e2ed"/><path d="m323.333 115.967h-83.4c-4.418 0-8-3.582-8-8v-17.134c0-4.418 3.582-8 8-8h83.4c4.418 0 8 3.582 8 8v17.133c0 4.419-3.581 8.001-8 8.001z" fill="#d0e2ed"/><g><path d="m215.367 256c-4.142 0-7.5-3.358-7.5-7.5v-91.9h-9.067c-4.142 0-7.5-3.358-7.5-7.5s3.358-7.5 7.5-7.5h16.567c4.142 0 7.5 3.358 7.5 7.5v99.4c0 4.142-3.358 7.5-7.5 7.5z" fill="#d0e2ed"/></g><g><path d="m273.35 256c-17.838 0-32.35-14.512-32.35-32.35v-49.7c0-17.838 14.512-32.35 32.35-32.35s32.35 14.512 32.35 32.35v49.7c0 17.838-14.512 32.35-32.35 32.35zm0-99.4c-9.567 0-17.35 7.783-17.35 17.35v49.7c0 9.567 7.783 17.35 17.35 17.35s17.35-7.783 17.35-17.35v-49.7c0-9.567-7.783-17.35-17.35-17.35z" fill="#d0e2ed"/></g><path d="m411.965 56.901h17.161v33.133h-17.161z" fill="#aabfcf" transform="matrix(.744 -.668 .668 .744 58.432 299.588)"/><path d="m182.255.044 7.387 14.774c5.613 11.225 17.085 18.316 29.635 18.316h58.445c12.55 0 24.023-7.091 29.635-18.316l7.387-14.774c-.237-.029-.476-.044-.716-.044h-131.056c-.24 0-.479.015-.717.044z" fill="#d0e2ed"/><path d="m323.333 115.967h-83.4c-4.418 0-8-3.582-8-8v-17.134c0-4.418 3.582-8 8-8h83.4c4.418 0 8 3.582 8 8v17.133c0 4.419-3.581 8.001-8 8.001z" fill="#d0e2ed"/><path d="m323.333 82.833h-23c4.418 0 8 3.582 8 8v17.133c0 4.418-3.582 8-8 8h23c4.418 0 8-3.582 8-8v-17.133c0-4.418-3.581-8-8-8z" fill="#aabfcf"/></g></svg>